<svg xmlns="http://www.w3.org/2000/svg" width="52" height="52" viewBox="0 0 52 52">
  <g id="gifts" transform="translate(-341 -223)">
    <rect id="Rectangle_4551" data-name="Rectangle 4551" width="52" height="52" transform="translate(341 223)" fill="#fff" opacity="0"/>
    <path id="Icon_awesome-gifts" data-name="Icon awesome-gifts" d="M14.76,11.908a6.468,6.468,0,0,1,2.7-4.9,1.945,1.945,0,0,0-1.755-1.123H13.9l1.883-1.35a.976.976,0,0,0,.227-1.368l-.571-.8a.976.976,0,0,0-1.368-.227l-1.963,1.4.706-1.877A.981.981,0,0,0,12.239.411l-.92-.344a.981.981,0,0,0-1.264.577L8.834,3.9,7.613.638A.981.981,0,0,0,6.35.061L5.429.4a.975.975,0,0,0-.571,1.264l.706,1.877L3.6,2.147a.981.981,0,0,0-1.368.227l-.571.8A.981.981,0,0,0,1.883,4.54l1.883,1.35h-1.8A1.961,1.961,0,0,0,0,7.852V29.447A1.961,1.961,0,0,0,1.963,31.41H12.325a3.9,3.9,0,0,1-.546-1.963V15.7A3.926,3.926,0,0,1,14.76,11.908ZM13.742,29.447a1.961,1.961,0,0,0,1.963,1.963h9.816V23.558H13.742ZM27.484,31.41H37.3a1.961,1.961,0,0,0,1.963-1.963V23.558H27.484ZM37.3,13.742H36.048a4.494,4.494,0,0,0,.27-1.46,4.385,4.385,0,0,0-4.423-4.429c-2.951,0-4.656,2.926-5.393,4.62-.742-1.693-2.448-4.62-5.393-4.62a4.385,4.385,0,0,0-4.423,4.429,4.337,4.337,0,0,0,.27,1.46H15.705A1.961,1.961,0,0,0,13.742,15.7v5.889H25.521V13.742h.939l.043-.012.043.012h.939v7.853H39.263V15.7A1.961,1.961,0,0,0,37.3,13.742Zm-16.687,0a2.307,2.307,0,0,1-.442-.294,1.506,1.506,0,0,1-.54-1.166A1.44,1.44,0,0,1,21.11,10.8c1.147,0,2.184,1.681,2.73,2.945Zm12.221-.294a2.307,2.307,0,0,1-.442.294H29.165c.54-1.245,1.583-2.945,2.73-2.945a1.44,1.44,0,0,1,1.478,1.485A1.506,1.506,0,0,1,32.834,13.447Z" transform="translate(347 233.013)" fill="#fff"/>
  </g>
</svg>
