<svg xmlns="http://www.w3.org/2000/svg" width="18.815" height="21.359" viewBox="0 0 18.815 21.359">
  <path id="FontAwsome_bell_" data-name="FontAwsome (bell)" d="M8.907,20.359a2.544,2.544,0,0,0,2.544-2.545H6.363A2.544,2.544,0,0,0,8.907,20.359Zm8.565-5.953c-.768-.826-2.206-2.067-2.206-6.135A6.279,6.279,0,0,0,10.178,2.1V1.272a1.272,1.272,0,1,0-2.543,0V2.1a6.279,6.279,0,0,0-5.087,6.17c0,4.068-1.437,5.31-2.206,6.135A1.242,1.242,0,0,0,0,15.27a1.274,1.274,0,0,0,1.276,1.272H16.537a1.273,1.273,0,0,0,1.276-1.272A1.242,1.242,0,0,0,17.471,14.406Z" transform="translate(0.501 0.5)" fill="none" stroke="#fff" stroke-width="1"/>
</svg>
