<svg xmlns="http://www.w3.org/2000/svg" width="52" height="52" viewBox="0 0 52 52">
  <g id="Group_3935" data-name="Group 3935" transform="translate(-179 -542)">
    <g id="Group_3934" data-name="Group 3934">
      <rect id="Rectangle_4555" data-name="Rectangle 4555" width="52" height="52" transform="translate(179 542)" fill="#fff" opacity="0"/>
      <g id="_4ceb2V" data-name="4ceb2V" transform="translate(-701.347 -133.408)">
        <g id="Group_3909" data-name="Group 3909" transform="translate(884.347 684.42)">
          <path id="Path_4098" data-name="Path 4098" d="M913.682,781.29l1.4,3.115c-.484.279-.352.715-.272,1.164q.9,5.028,1.786,10.061c.008.044.02.088.043.181l5.643-3.18c-.133-.306-.255-.592-.381-.876-.607-1.37-1.217-2.739-1.818-4.112a.564.564,0,0,1-.052-.374c.5-1.145,1.02-2.281,1.567-3.494l4.571,10.305c-.169.1-.32.188-.473.275q-4.875,2.751-9.749,5.507a.6.6,0,0,1-.674,0c-3.245-1.843-6.5-3.669-9.743-5.512a.5.5,0,0,0-.562.008q-4.884,2.767-9.772,5.524a.528.528,0,0,1-.591,0q-5.007-2.839-10.023-5.661c-.072-.041-.142-.086-.24-.147l7.909-17.843,5.217,5.9,1.2-.9q3.174-2.387,6.346-4.779a.335.335,0,0,1,.481,0q3.614,2.733,7.238,5.449c.085.063.171.124.306.222Zm-25.455,11.338,5.645,3.184c.023-.106.04-.17.051-.235q.933-5.249,1.857-10.5a.627.627,0,0,0-.131-.439c-.785-.907-1.583-1.8-2.379-2.695-.061-.068-.13-.126-.217-.208Zm15.565-11.3c-.078.049-.122.072-.161.1-1.58,1.188-3.162,2.373-4.736,3.571a.679.679,0,0,0-.2.388q-.707,3.908-1.4,7.821c-.116.652-.227,1.3-.351,2.021.162-.086.271-.14.378-.2,2.063-1.164,4.125-2.333,6.192-3.486a.529.529,0,0,0,.3-.547c-.009-3.1-.006-6.2-.007-9.3C903.809,781.591,903.8,781.482,903.792,781.331Zm9.769,13.9c-.02-.172-.026-.263-.042-.351q-.843-4.743-1.695-9.485a.763.763,0,0,0-.248-.431c-1.532-1.168-3.072-2.321-4.611-3.477-.069-.052-.145-.093-.241-.153-.007.11-.015.167-.015.224q0,4.772,0,9.545a.4.4,0,0,0,.25.408q2.675,1.5,5.345,3.011Z" transform="translate(-884.347 -766.064)" fill="#f4a382"/>
          <path id="Path_4099" data-name="Path 4099" d="M1085.309,705.608l-1.248-2.448q-2.317-4.543-4.632-9.086a6.6,6.6,0,0,1,5.188-9.61,6.611,6.611,0,0,1,6.742,9.234c-.628,1.438-1.408,2.81-2.122,4.211q-1.87,3.67-3.742,7.34C1085.445,705.349,1085.393,705.448,1085.309,705.608Zm3.735-14.559a3.734,3.734,0,1,0-3.736,3.721A3.748,3.748,0,0,0,1089.044,691.049Z" transform="translate(-1051.454 -684.42)" fill="#f4a382"/>
        </g>
      </g>
    </g>
  </g>
</svg>
