<svg xmlns="http://www.w3.org/2000/svg" width="52" height="52" viewBox="0 0 52 52">
  <g id="properties" transform="translate(-29 -314)">
    <rect id="Rectangle_4552" data-name="Rectangle 4552" width="52" height="52" transform="translate(29 314)" fill="#fff" opacity="0"/>
    <g id="Group_3916" data-name="Group 3916" transform="translate(-1302.353 -334.529)">
      <path id="Path_4100" data-name="Path 4100" d="M1427.912,709.984h-6.971V701.93h-5.78v8.049h-6.987v-.288q0-12,0-24a.447.447,0,0,1,.227-.428q4.715-3.141,9.419-6.3a.347.347,0,0,1,.462,0q4.7,3.158,9.418,6.3a.427.427,0,0,1,.221.4q-.008,12.012,0,24.025Zm-13.36-19.657v-3.421h-3.433v3.421Zm5.212-3.421h-3.44v3.419h3.44Zm0,8.621V692.1h-3.436v3.421Zm0,5.207V697.3h-3.435v3.431Zm-5.2-8.628h-3.439v3.421h3.439Zm0,8.627V697.3h-3.436v3.431Zm10.409-10.406v-3.42h-3.424v3.42Zm.007,1.783h-3.43v3.415h3.43Zm-3.434,8.624h3.43V697.3h-3.43Z" transform="translate(-60.689 -18.827)" fill="#fff"/>
      <path id="Path_4101" data-name="Path 4101" d="M1552.67,798.6h-8.838V784.073h8.838Zm-2.7-9.254V785.92h-3.436v3.423Zm-3.433,1.7v3.445h3.414c.016-.034.029-.049.029-.065,0-1.07.009-2.141,0-3.211a.238.238,0,0,0-.167-.162C1548.732,791.035,1547.654,791.038,1546.533,791.038Z" transform="translate(-174.968 -107.441)" fill="#fff"/>
      <path id="Path_4102" data-name="Path 4102" d="M1350.447,798.607H1341.6V784.091h8.848Zm-2.714-9.25v-3.423h-3.422v3.423Zm-3.427,1.712V794.5h3.422V791.07Z" transform="translate(-4.61 -107.456)" fill="#fff"/>
      <path id="Path_4103" data-name="Path 4103" d="M1411.155,665.629h-.255c-.858,0-1.716-.006-2.575,0a.982.982,0,0,1-.59-.178q-4.815-3.229-9.636-6.449a.981.981,0,0,0-1.173,0q-4.819,3.222-9.636,6.449a.983.983,0,0,1-.59.179c-.858-.01-1.716,0-2.575,0h-.33c.124-.093.188-.146.257-.192q6.626-4.411,13.251-8.823a.3.3,0,0,1,.394-.019q6.665,4.448,13.338,8.884c.044.029.085.062.128.094Z" transform="translate(-40.156)" fill="#fff"/>
      <path id="Path_4104" data-name="Path 4104" d="M1553.526,771.19H1543.8v-1h9.721Z" transform="translate(-174.945 -95.742)" fill="#fff"/>
      <path id="Path_4105" data-name="Path 4105" d="M1336.126,771.158v-1h9.707v1Z" transform="translate(0 -95.717)" fill="#fff"/>
    </g>
  </g>
</svg>
