<svg xmlns="http://www.w3.org/2000/svg" width="52" height="52" viewBox="0 0 52 52">
  <g id="experience" transform="translate(-258 -223)">
    <rect id="Rectangle_4550" data-name="Rectangle 4550" width="52" height="52" transform="translate(258 223)" fill="#fff" opacity="0"/>
    <g id="_2srJH3" data-name="2srJH3" transform="translate(-141.742 -510.587)">
      <g id="Group_3908" data-name="Group 3908" transform="translate(405.742 745.599)">
        <path id="Path_4095" data-name="Path 4095" d="M409.484,761.289c.369-.042.692-.076,1.015-.115a1.33,1.33,0,0,1,1.155.356,1.135,1.135,0,0,1,.279.7q.382,2.371.76,4.743c.133.839.256,1.68.39,2.519q.179,1.122.375,2.243a.981.981,0,0,1-.857,1.231c-1.12.173-2.243.33-3.366.484a4.3,4.3,0,0,1-.966.074,1.013,1.013,0,0,1-.968-.937c-.277-1.721-.547-3.442-.822-5.163q-.352-2.193-.712-4.384a1.046,1.046,0,0,1,1.02-1.322c.64-.079,1.278-.178,1.917-.269a.449.449,0,0,0,.078-.022c.164-.775.3-1.541.491-2.3a13.708,13.708,0,0,1,1.057-2.8c.1-.211.125-.369-.055-.538a1.667,1.667,0,0,1-.206-.27,1.033,1.033,0,0,1-.045-1.214,17.28,17.28,0,0,1,3.591-4.211,18.128,18.128,0,0,1,7.328-3.823,25.319,25.319,0,0,1,2.5-.481,19.69,19.69,0,0,1,4.2-.141,19.006,19.006,0,0,1,6.419,1.531,18.246,18.246,0,0,1,6.268,4.454,16.531,16.531,0,0,1,2.011,2.689,1.026,1.026,0,0,1-.042,1.179.378.378,0,0,1-.061.087c-.371.3-.29.608-.1.992a14.674,14.674,0,0,1,1.351,4.542c.012.091.034.181.057.3l1.1.163c.385.058.775.1,1.155.179a.97.97,0,0,1,.813.747,1.272,1.272,0,0,1-.017.461c-.214,1.358-.435,2.714-.653,4.072q-.333,2.078-.666,4.156c-.079.489-.156.979-.244,1.467a.985.985,0,0,1-.883.847,3.906,3.906,0,0,1-.928-.042c-1.144-.159-2.286-.331-3.428-.5a.986.986,0,0,1-.9-1.177c.03-.21.072-.419.105-.629q.35-2.182.7-4.365.29-1.8.583-3.609c.057-.357.132-.712.164-1.071a1.108,1.108,0,0,1,1.168-.953c.346.012.692.065,1.037.1l.216.022c-.1-.483-.191-.945-.289-1.406a16.285,16.285,0,0,0-1.181-3.449.472.472,0,0,0-.443-.307,2.35,2.35,0,0,1-.616-.143,1.316,1.316,0,0,1-.649-.558,15.112,15.112,0,0,0-6.562-5.819,15.464,15.464,0,0,0-5.392-1.433,16.627,16.627,0,0,0-7.306.933,15.14,15.14,0,0,0-7.727,6.292,1.486,1.486,0,0,1-1.231.726.537.537,0,0,0-.518.357,14.878,14.878,0,0,0-.976,2.623C409.778,759.81,409.648,760.536,409.484,761.289Z" transform="translate(-405.742 -745.599)" fill="#fff"/>
        <path id="Path_4096" data-name="Path 4096" d="M489.11,871.921H499a2.092,2.092,0,0,1,2.176,2.17q0,3.218,0,6.435c0,.766,0,1.533,0,2.3a2.085,2.085,0,0,1-1.649,2.074,2.275,2.275,0,0,1-.507.052q-2.65,0-5.3,0a2.11,2.11,0,0,1-1.776-.842,2.41,2.41,0,0,1-.4-.973,4.031,4.031,0,0,0-1.266-2.329,1.748,1.748,0,0,0-2.558.205,4.9,4.9,0,0,0-1.083,2.314,2.006,2.006,0,0,1-1.709,1.593,3.77,3.77,0,0,1-.595.031c-1.7,0-3.4,0-5.093,0a2.1,2.1,0,0,1-2.183-2.163q0-4.347,0-8.694a2.094,2.094,0,0,1,2.172-2.175h9.885Z" transform="translate(-468.677 -857.086)" fill="#fff"/>
        <path id="Path_4097" data-name="Path 4097" d="M549.479,862.262v-.719h6.766v.719Z" transform="translate(-532.599 -847.927)" fill="#fff"/>
      </g>
    </g>
  </g>
</svg>
