<svg xmlns="http://www.w3.org/2000/svg" width="52" height="52" viewBox="0 0 52 52">
  <g id="Group_3936" data-name="Group 3936" transform="translate(-107 -542)">
    <rect id="Rectangle_4558" data-name="Rectangle 4558" width="52" height="52" transform="translate(107 542)" fill="#fff" opacity="0"/>
    <g id="fDI6ca" transform="translate(-1574.391 -155.225)">
      <g id="Group_3918" data-name="Group 3918" transform="translate(1686.46 712.196)">
        <path id="Path_4106" data-name="Path 4106" d="M1686.466,743.9c0-1.333-.024-2.512.025-3.688.008-.188.314-.427.534-.534a143.316,143.316,0,0,1,15.029-6.312,93.575,93.575,0,0,1,17.911-4.541c2.1-.291,4.227-.405,6.344-.563.777-.058,1.562-.009,2.456-.009-.6,1.161-1.141,2.23-1.695,3.293-1.776,3.409-3.563,6.813-5.323,10.23a1.427,1.427,0,0,1-1.01.8,24.784,24.784,0,0,1-10.989.2c-2.7-.515-5.359-1.292-8.067-1.785a20.373,20.373,0,0,0-14.267,2.472C1687.164,743.607,1686.889,743.706,1686.466,743.9Zm22.452-10.147a1.126,1.126,0,0,0-1.129,1.094,1.142,1.142,0,0,0,1.15,1.157,1.12,1.12,0,0,0,1.1-1.128A1.161,1.161,0,0,0,1708.918,733.752Zm-3.6,1.155a1.115,1.115,0,1,0,.008,2.229,1.115,1.115,0,0,0-.008-2.229Zm-2.358,2.276a1.116,1.116,0,1,0-1.12,1.093A1.123,1.123,0,0,0,1702.96,737.183Z" transform="translate(-1686.46 -725.798)" fill="#f4a382"/>
        <path id="Path_4107" data-name="Path 4107" d="M1729.267,715.636c-.088-.246-.146-.411-.208-.574s-.125-.323-.179-.462h-2.848l-.058-.31c1.637-.478,3.255-1.046,4.917-1.413a24.783,24.783,0,0,1,8.754-.485c2.3.319,4.552.954,6.824,1.452,1.055.231,2.11.468,3.168.769a82.681,82.681,0,0,0-18.972,5.723l-1.025-3.353c1.2-.4,2.343-.776,3.487-1.152.24-.079.485-.144.728-.215.455-.132.72-.419.573-.9a.694.694,0,0,0-.98-.445c-1.159.36-2.313.735-3.469,1.107C1729.767,715.447,1729.559,715.53,1729.267,715.636Z" transform="translate(-1719.973 -712.196)" fill="#f4a382"/>
        <path id="Path_4108" data-name="Path 4108" d="M1688.528,818.977a14.985,14.985,0,0,1,5.208-2.669,20.127,20.127,0,0,1,11.228-.191,47.638,47.638,0,0,0,11.339,1.926,21.5,21.5,0,0,0,10.616-2.375.474.474,0,0,1,.42-.036c-.416.332-.815.686-1.249.992a19.506,19.506,0,0,1-11.545,3.337,25.889,25.889,0,0,1-7.911-1.264c-5.97-1.888-11.916-2.141-17.835.2A2.529,2.529,0,0,1,1688.528,818.977Z" transform="translate(-1688.214 -799.734)" fill="#f4a382"/>
        <path id="Path_4109" data-name="Path 4109" d="M1713.378,837.381a12.157,12.157,0,0,1-6.642.814c-2.166-.336-4.294-.921-6.439-1.4a17.413,17.413,0,0,0-10,.649.376.376,0,0,1-.34-.02c.3-.189.588-.392.9-.563a13.822,13.822,0,0,1,10.281-1.371,39.218,39.218,0,0,0,9.49,1.491A18.082,18.082,0,0,1,1713.378,837.381Z" transform="translate(-1689.424 -816.401)" fill="#f4a382"/>
        <path id="Path_4110" data-name="Path 4110" d="M1774.887,835.238l-4.855-1.041.056-.267,4.849,1.037Z" transform="translate(-1757.339 -815.44)" fill="#f4a382"/>
      </g>
    </g>
  </g>
</svg>
